<svg width="58" height="58" viewBox="0 0 58 58" fill="none" xmlns="http://www.w3.org/2000/svg">
<path d="M43.5 16.9166V48.3333C43.5 48.9742 43.2454 49.5889 42.7922 50.0421C42.339 50.4953 41.7243 50.75 41.0833 50.75H16.9167C16.2757 50.75 15.661 50.4953 15.2078 50.0421C14.7546 49.5889 14.5 48.9742 14.5 48.3333L14.5 16.9166H43.5Z" fill="#ED8265"/>
<path d="M38.6663 16.9167V9.66667C38.6663 9.02573 38.4117 8.41104 37.9585 7.95783C37.5053 7.50461 36.8906 7.25 36.2497 7.25H21.7497C21.1087 7.25 20.494 7.50461 20.0408 7.95783C19.5876 8.41104 19.333 9.02573 19.333 9.66667V16.9167" stroke="black" stroke-width="5" stroke-linecap="round" stroke-linejoin="round"/>
<path d="M24.167 26.5833V41.0833M33.8337 26.5833V41.0833M9.66699 16.9166H48.3337M43.5003 48.3333V16.9166H14.5003V48.3333C14.5003 48.9742 14.7549 49.5889 15.2082 50.0421C15.6614 50.4953 16.2761 50.75 16.917 50.75H41.0837C41.7246 50.75 42.3393 50.4953 42.7925 50.0421C43.2457 49.5889 43.5003 48.9742 43.5003 48.3333Z" stroke="black" stroke-width="5" stroke-linecap="round" stroke-linejoin="round"/>
</svg>
