<svg width="35" height="35" viewBox="0 0 35 35" fill="none" xmlns="http://www.w3.org/2000/svg">
<path d="M22.2422 4.50195C18.3213 5.75777 15.749 8.84491 14.5253 13.7634C12.6899 21.1411 10.4152 22.0818 3.00977 19.4577C5.66937 24.3702 11.0599 26.3398 14.5253 26.3398C17.9907 26.3398 26.9659 21.5149 25.9375 12.3436C25.0448 9.67249 23.8131 7.05859 22.2422 4.50195Z" fill="#D8D8D8"/>
<mask id="mask0_356_199" style="mask-type:luminance" maskUnits="userSpaceOnUse" x="3" y="4" width="24" height="23">
<path d="M22.2442 4.50183C18.3232 5.75765 15.7509 8.84479 14.5273 13.7632C12.6918 21.1409 10.4172 22.0817 3.01172 19.4576C5.67133 24.3701 11.0619 26.3397 14.5273 26.3397C17.9927 26.3397 26.9678 21.5148 25.9395 12.3435C25.0468 9.67236 23.815 7.05847 22.2442 4.50183Z" fill="#FFA0A0"/>
</mask>
<g mask="url(#mask0_356_199)">
<path d="M38.501 -3.5H-3.49902V38.5H38.501V-3.5Z" fill="#ED8265"/>
</g>
<path d="M24.8135 22.3478L34.4926 32.0427C35.1691 32.7193 35.1691 33.8161 34.4926 34.4926C33.8161 35.1691 32.7193 35.1691 32.0427 34.4926L22.3656 24.7996C20.0174 26.628 17.0652 27.7171 13.8586 27.7171C6.20468 27.7171 0 21.5124 0 13.8586C0 6.20468 6.20468 0 13.8586 0C21.5124 0 27.7171 6.20468 27.7171 13.8586C27.7171 17.057 26.6335 20.0025 24.8135 22.3478ZM13.8586 24.2525C19.5989 24.2525 24.2525 19.5989 24.2525 13.8586C24.2525 8.11815 19.5989 3.46464 13.8586 3.46464C8.11815 3.46464 3.46464 8.11815 3.46464 13.8586C3.46464 19.5989 8.11815 24.2525 13.8586 24.2525Z" fill="black"/>
<mask id="mask1_356_199" style="mask-type:luminance" maskUnits="userSpaceOnUse" x="0" y="0" width="35" height="35">
<path d="M24.8135 22.3478L34.4926 32.0427C35.1691 32.7193 35.1691 33.8161 34.4926 34.4926C33.8161 35.1691 32.7193 35.1691 32.0427 34.4926L22.3656 24.7996C20.0174 26.628 17.0652 27.7171 13.8586 27.7171C6.20468 27.7171 0 21.5124 0 13.8586C0 6.20468 6.20468 0 13.8586 0C21.5124 0 27.7171 6.20468 27.7171 13.8586C27.7171 17.057 26.6335 20.0025 24.8135 22.3478ZM13.8586 24.2525C19.5989 24.2525 24.2525 19.5989 24.2525 13.8586C24.2525 8.11815 19.5989 3.46464 13.8586 3.46464C8.11815 3.46464 3.46464 8.11815 3.46464 13.8586C3.46464 19.5989 8.11815 24.2525 13.8586 24.2525Z" fill="#7600FF"/>
</mask>
<g mask="url(#mask1_356_199)">
<path d="M38.5 -3.5H-3.5V38.5H38.5V-3.5Z" fill="black"/>
</g>
</svg>
